<svg xmlns="http://www.w3.org/2000/svg" viewBox="0 0 172 38"><defs><style>.cls-1{fill:#fff;}.cls-2{fill:#0c318d;}.cls-3{fill:#009fe7;}</style></defs><title>logo</title><g id="レイヤー_1" data-name="レイヤー 1"><path class="cls-1" d="M165,9.87a13.29,13.29,0,0,0-9.45,4l-.05-.06A13.47,13.47,0,0,0,146,9.87a13.17,13.17,0,0,0-9.39,3.9c-.15.15-.28.31-.42.47a12.49,12.49,0,0,0-4.77-4.81A5.79,5.79,0,0,0,122,3.16a5.79,5.79,0,0,0-9.43,6.27,12.48,12.48,0,0,0-4,3.63A13.49,13.49,0,0,0,99.9,9.87a13.16,13.16,0,0,0-7.43,2.27,6.49,6.49,0,0,0-4.93-2.27,13.27,13.27,0,0,0-8.79,3.34,6.5,6.5,0,0,0-5.3-2.76h-.35c0-.3,0-.92,0-.92l0-.27a6.48,6.48,0,0,0-12.93.65,6.44,6.44,0,0,0-5.27,1.86L52.62,14l-2.25-2.25a6.48,6.48,0,0,0-9.16,0l-.09.1a13.3,13.3,0,0,0-16.41,1.91,13.08,13.08,0,0,0-1,1.12A13.3,13.3,0,0,0,0,23.18V30a6.5,6.5,0,0,0,3,5.44,5.26,5.26,0,0,0,3.5,1,5.28,5.28,0,0,0,3.5-1,6.54,6.54,0,0,0,2.89-4.35l.1-1.45V23.19a.35.35,0,0,1,.69,0V30a6.51,6.51,0,0,0,6.47,6.48h0a6.47,6.47,0,0,0,5.49-3,13.42,13.42,0,0,0,8.45,3h.05a13.15,13.15,0,0,0,7-2l.08.08a6.49,6.49,0,0,0,9.17,0l2.25-2.25,2.24,2.24a6.51,6.51,0,0,0,4.44,1.9h.16A6.44,6.44,0,0,0,65,33.43,13.32,13.32,0,0,0,70,36a13.47,13.47,0,0,0,3.49.47,7,7,0,0,0,3.5-1l.13-.09.14.09a6.45,6.45,0,0,0,7,0,6.5,6.5,0,0,0,3-5.45V27.08A13.27,13.27,0,0,0,99.9,36.5h0a13.4,13.4,0,0,0,7.43-2.29,5.63,5.63,0,0,0,7.9,1.17,5.64,5.64,0,0,0,6.74,0,5.65,5.65,0,0,0,5.74.59l4.06.51h.31a5.62,5.62,0,0,0,2.34-.51s2.22-.16,3-1.11a2.33,2.33,0,0,0,.4-1.18A13.41,13.41,0,0,0,146,36.5h0a13.39,13.39,0,0,0,7.25-2.16,6.55,6.55,0,0,0,1.33,1.14,7.12,7.12,0,0,0,3.49,1,7.19,7.19,0,0,0,3.49-1,6.46,6.46,0,0,0,2.86-4.15l.19-.57,0-.29c0-.1,0-.21,0-.31a3.44,3.44,0,0,0,0-.6v0c0-.1,0-.48,0-1.69V23.18a.36.36,0,0,1,.35-.35,6.48,6.48,0,0,0,0-13Z"/><path class="cls-2" d="M61.56,27.91,57,23.38a.27.27,0,0,1-.08-.19A.26.26,0,0,1,57,23l4.53-4.53a3,3,0,0,0,.87-2.09h0v-.12h0a3,3,0,0,0-5.09-2l-4.53,4.53a.27.27,0,0,1-.19.08.27.27,0,0,1-.19-.08L47.9,14.24a3,3,0,0,0-4.22,4.22L48.21,23a.27.27,0,0,1,.08.19.27.27,0,0,1-.08.19l-4.53,4.53a3,3,0,0,0,4.22,4.22l4.53-4.53a.27.27,0,0,1,.38,0l4.53,4.53a3,3,0,0,0,2.1.87h0a3,3,0,0,0,3-3V30h0A3,3,0,0,0,61.56,27.91ZM32,21.08a3,3,0,0,0,4.22,4.22l4.83-4.83a3,3,0,0,0,0-4.22A9.82,9.82,0,1,0,34.1,33h.05a9.71,9.71,0,0,0,6.91-2.87,3,3,0,0,0,.87-2.1h0v-.13h0a3,3,0,0,0-5.09-2,3.85,3.85,0,1,1-5.44-5.44,3.79,3.79,0,0,1,1.37-.89l.09,0a.27.27,0,0,1,.27.27.26.26,0,0,1-.08.19ZM23.13,27.3V23.19a9.81,9.81,0,1,0-19.63,0V30a3,3,0,0,0,3,3v0a3,3,0,0,0,3-3v-.08a.72.72,0,0,0,0-.1v-.06a.23.23,0,0,1,0-.07.31.31,0,0,1,0-.08l0-.1V23.18a3.85,3.85,0,0,1,7.7,0V30a3,3,0,0,0,5.93.45.23.23,0,0,1,0-.07.82.82,0,0,0,.07-.32V30C23.15,29.74,23.13,29.08,23.13,27.3Zm46.75-7.39h3.57a3,3,0,1,0,0-6H69.88a.27.27,0,0,1-.27-.27c0-3.37,0-3.69,0-3.79V9.75a.25.25,0,0,1,0,0,3,3,0,0,0-6,.24V23.19A9.83,9.83,0,0,0,73.45,33v0a3,3,0,1,0,0-6,3.86,3.86,0,0,1-3.85-3.85v-3A.27.27,0,0,1,69.88,19.91ZM165,13.37a9.83,9.83,0,0,0-9.82,9.81V30a3,3,0,0,0,3,3v0a3,3,0,0,0,2.95-2.54.24.24,0,0,1,0-.07v-.06a.8.8,0,0,0,0-.26.56.56,0,0,0,0-.09,20.8,20.8,0,0,1-.05-2.14V23.18A3.86,3.86,0,0,1,165,19.33a3,3,0,1,0,0-6ZM143.06,23.2a3,3,0,0,0,5.09,2.1L153,20.46a3,3,0,0,0,0-4.22,9.91,9.91,0,0,0-7-2.88,9.72,9.72,0,0,0-6.92,2.88A9.81,9.81,0,0,0,146,33h0A9.86,9.86,0,0,0,153,30.12a3,3,0,0,0-4.23-4.21,3.85,3.85,0,1,1-4.07-6.33l.1,0A.27.27,0,0,1,145,20l-1.05,1.05a3,3,0,0,0-.87,2s0,0,0,0h0v.06Zm-46.12,0a3,3,0,0,0,5.1,2.1l4.83-4.83a3,3,0,0,0,0-4.22,9.92,9.92,0,0,0-7-2.88A9.73,9.73,0,0,0,93,16.25,9.81,9.81,0,0,0,99.9,33h0a9.86,9.86,0,0,0,6.93-2.88,3,3,0,0,0-4.23-4.21,3.85,3.85,0,1,1-4.07-6.33l.1,0a.27.27,0,0,1,.23.13.27.27,0,0,1,0,.15.28.28,0,0,1-.08.19l-1.05,1.05a3,3,0,0,0-.87,2s0,0,0,0h0v.06Zm-9.39-9.83a9.84,9.84,0,0,0-9.82,9.81V30a3,3,0,0,0,3,3v0a3,3,0,0,0,3-3V23.19a3.86,3.86,0,0,1,3.85-3.84,3,3,0,0,0,0-6Z"/><path class="cls-3" d="M134.27,26.56V20.23a8.87,8.87,0,0,0-12.05-8.3.6.6,0,0,1-.21,0,.6.6,0,0,1-.21,0,8.87,8.87,0,0,0-12.05,8.3V30.85a2.15,2.15,0,1,0,4.31,0V20.23a4.56,4.56,0,0,1,2.19-3.9.6.6,0,0,1,.31-.09.58.58,0,0,1,.54.79,8.84,8.84,0,0,0-.6,3.2V30.85a2.15,2.15,0,1,0,4.31,0V20.23a4.58,4.58,0,0,1,.73-2.47.58.58,0,0,1,1,0,4.57,4.57,0,0,1,.73,2.47V30.85a2.15,2.15,0,0,0,4.31,0l.05.05c-.05-.44-.06-2.86-.06-4.34V20.23a8.87,8.87,0,0,0-.6-3.2.58.58,0,0,1,.85-.7,4.57,4.57,0,0,1,2.19,3.9V30.85a2.15,2.15,0,0,0,4.31,0l.05.05C134.27,30.46,134.27,28,134.27,26.56ZM118,9.58a2.29,2.29,0,1,0-2.29-2.29A2.29,2.29,0,0,0,118,9.58Zm8.11,0a2.29,2.29,0,1,0-2.29-2.29A2.29,2.29,0,0,0,126.06,9.58Z"/></g></svg>